<?xml version="1.0" encoding="utf-8"?>
<svg version="1.1" xmlns:xlink="http://www.w3.org/1999/xlink" width="15px" height="17px" xmlns="http://www.w3.org/2000/svg">
  <g transform="matrix(1 0 0 1 -305 -1164 )">
    <path d="M 11.2890625 0.645089285714286  L 14.3359375 3.60491071428571  C 14.5182291666667 3.78199404761905  14.6744791666667 4.02232142857143  14.8046875 4.32589285714286  C 14.9348958333333 4.62946428571429  15 4.90773809523809  15 5.16071428571429  L 15 16.0892857142857  C 15 16.3422619047619  14.9088541666667 16.5572916666667  14.7265625 16.734375  C 14.5442708333333 16.9114583333333  14.3229166666667 17  14.0625 17  L 0.9375 17  C 0.677083333333333 17  0.455729166666667 16.9114583333333  0.2734375 16.734375  C 0.0911458333333333 16.5572916666667  0 16.3422619047619  0 16.0892857142857  L 0 0.910714285714286  C 0 0.657738095238095  0.0911458333333333 0.442708333333333  0.2734375 0.265625  C 0.455729166666667 0.0885416666666673  0.677083333333333 0  0.9375 0  L 9.6875 0  C 9.94791666666667 0  10.234375 0.0632440476190483  10.546875 0.189732142857143  C 10.859375 0.316220238095238  11.1067708333333 0.468005952380952  11.2890625 0.645089285714286  Z M 10.400390625 1.49888392857143  C 10.322265625 1.42299107142857  10.1888020833333 1.35342261904762  10 1.29017857142857  L 10 4.85714285714286  L 13.671875 4.85714285714286  C 13.6067708333333 4.67373511904762  13.53515625 4.54408482142857  13.45703125 4.46819196428571  L 10.400390625 1.49888392857143  Z M 1.25 15.7857142857143  L 13.75 15.7857142857143  L 13.75 6.07142857142857  L 9.6875 6.07142857142857  C 9.42708333333333 6.07142857142857  9.20572916666667 5.9828869047619  9.0234375 5.80580357142857  C 8.84114583333333 5.62872023809524  8.75 5.41369047619047  8.75 5.16071428571429  L 8.75 1.21428571428571  L 1.25 1.21428571428571  L 1.25 15.7857142857143  Z M 3.75 8.19642857142857  L 3.75 7.58928571428571  C 3.75 7.50074404761905  3.779296875 7.42801339285714  3.837890625 7.37109375  C 3.896484375 7.31417410714286  3.97135416666667 7.28571428571429  4.0625 7.28571428571429  L 10.9375 7.28571428571429  C 11.0286458333333 7.28571428571429  11.103515625 7.31417410714286  11.162109375 7.37109375  C 11.220703125 7.42801339285714  11.25 7.50074404761905  11.25 7.58928571428571  L 11.25 8.19642857142857  C 11.25 8.28497023809524  11.220703125 8.35770089285714  11.162109375 8.41462053571429  C 11.103515625 8.47154017857143  11.0286458333333 8.5  10.9375 8.5  L 4.0625 8.5  C 3.97135416666667 8.5  3.896484375 8.47154017857143  3.837890625 8.41462053571429  C 3.779296875 8.35770089285714  3.75 8.28497023809524  3.75 8.19642857142857  Z M 4.0625 9.71428571428571  L 10.9375 9.71428571428571  C 11.0286458333333 9.71428571428571  11.103515625 9.74274553571429  11.162109375 9.79966517857143  C 11.220703125 9.85658482142857  11.25 9.92931547619048  11.25 10.0178571428571  L 11.25 10.625  C 11.25 10.7135416666667  11.220703125 10.7862723214286  11.162109375 10.8431919642857  C 11.103515625 10.9001116071429  11.0286458333333 10.9285714285714  10.9375 10.9285714285714  L 4.0625 10.9285714285714  C 3.97135416666667 10.9285714285714  3.896484375 10.9001116071429  3.837890625 10.8431919642857  C 3.779296875 10.7862723214286  3.75 10.7135416666667  3.75 10.625  L 3.75 10.0178571428571  C 3.75 9.92931547619048  3.779296875 9.85658482142857  3.837890625 9.79966517857143  C 3.896484375 9.74274553571429  3.97135416666667 9.71428571428571  4.0625 9.71428571428571  Z M 4.0625 12.1428571428571  L 10.9375 12.1428571428571  C 11.0286458333333 12.1428571428571  11.103515625 12.1713169642857  11.162109375 12.2282366071429  C 11.220703125 12.28515625  11.25 12.3578869047619  11.25 12.4464285714286  L 11.25 13.0535714285714  C 11.25 13.1421130952381  11.220703125 13.21484375  11.162109375 13.2717633928571  C 11.103515625 13.3286830357143  11.0286458333333 13.3571428571429  10.9375 13.3571428571429  L 4.0625 13.3571428571429  C 3.97135416666667 13.3571428571429  3.896484375 13.3286830357143  3.837890625 13.2717633928571  C 3.779296875 13.21484375  3.75 13.1421130952381  3.75 13.0535714285714  L 3.75 12.4464285714286  C 3.75 12.3578869047619  3.779296875 12.28515625  3.837890625 12.2282366071429  C 3.896484375 12.1713169642857  3.97135416666667 12.1428571428571  4.0625 12.1428571428571  Z " fill-rule="nonzero" fill="#014886" stroke="none" transform="matrix(1 0 0 1 305 1164 )" />
  </g>
</svg>