<?xml version="1.0" encoding="utf-8"?>
<svg version="1.1" xmlns:xlink="http://www.w3.org/1999/xlink" width="28px" height="25px" xmlns="http://www.w3.org/2000/svg">
  <g transform="matrix(1 0 0 1 -30 -1713 )">
    <path d="M 10 2.08333333333333  L 10 4.16666666666667  L 18 4.16666666666667  L 18 2.08333333333333  L 10 2.08333333333333  Z M 17.5 14.5833333333333  L 28 14.5833333333333  L 28 22.3958333333333  C 28 23.1119791666667  27.7552083333333 23.7250434027778  27.265625 24.2350260416667  C 26.7760416666667 24.7450086805556  26.1875 25  25.5 25  L 2.5 25  C 1.8125 25  1.22395833333333 24.7450086805556  0.734375 24.2350260416667  C 0.244791666666667 23.7250434027778  0 23.1119791666667  0 22.3958333333333  L 0 14.5833333333333  L 10.5 14.5833333333333  L 10.5 17.1875  C 10.5 17.4696180555556  10.5989583333333 17.7137586805556  10.796875 17.919921875  C 10.9947916666667 18.1260850694444  11.2291666666667 18.2291666666667  11.5 18.2291666666667  L 16.5 18.2291666666667  C 16.7708333333333 18.2291666666667  17.0052083333333 18.1260850694444  17.203125 17.919921875  C 17.4010416666667 17.7137586805556  17.5 17.4696180555556  17.5 17.1875  L 17.5 14.5833333333333  Z M 12 14.5833333333333  L 16 14.5833333333333  L 16 16.6666666666667  L 12 16.6666666666667  L 12 14.5833333333333  Z M 27.265625 4.931640625  C 27.7552083333333 5.44162326388889  28 6.0546875  28 6.77083333333333  L 28 13  L 0 13  L 0 6.77083333333333  C 0 6.0546875  0.244791666666667 5.44162326388889  0.734375 4.931640625  C 1.22395833333333 4.42165798611111  1.8125 4.16666666666667  2.5 4.16666666666667  L 8 4.16666666666667  L 8 1.5625  C 8 1.12847222222222  8.14583333333333 0.759548611111108  8.4375 0.455729166666666  C 8.72916666666667 0.151909722222224  9.08333333333333 0  9.5 0  L 18.5 0  C 18.9166666666667 0  19.2708333333333 0.151909722222224  19.5625 0.455729166666666  C 19.8541666666667 0.759548611111108  20 1.12847222222222  20 1.5625  L 20 4.16666666666667  L 25.5 4.16666666666667  C 26.1875 4.16666666666667  26.7760416666667 4.42165798611111  27.265625 4.931640625  Z " fill-rule="nonzero" fill="#014886" stroke="none" transform="matrix(1 0 0 1 30 1713 )" />
  </g>
</svg>