<?xml version="1.0" encoding="utf-8"?>
<svg version="1.1" xmlns:xlink="http://www.w3.org/1999/xlink" width="25px" height="21px" xmlns="http://www.w3.org/2000/svg">
  <g transform="matrix(1 0 0 1 -24 -2660 )">
    <path d="M 4.57589285714286 16.1079545454545  C 5.09672619047619 16.6647727272727  5.35714285714286 17.3409090909091  5.35714285714286 18.1363636363636  C 5.35714285714286 18.9318181818182  5.09672619047619 19.6079545454545  4.57589285714286 20.1647727272727  C 4.05505952380952 20.7215909090909  3.42261904761905 21  2.67857142857143 21  C 1.93452380952381 21  1.30208333333333 20.7215909090909  0.78125 20.1647727272727  C 0.260416666666667 19.6079545454545  0 18.9318181818182  0 18.1363636363636  C 0 17.3409090909091  0.260416666666667 16.6647727272727  0.78125 16.1079545454545  C 1.30208333333333 15.5511363636364  1.93452380952381 15.2727272727273  2.67857142857143 15.2727272727273  C 3.42261904761905 15.2727272727273  4.05505952380952 15.5511363636364  4.57589285714286 16.1079545454545  Z M 4.57589285714286 8.47159090909091  C 5.09672619047619 9.02840909090909  5.35714285714286 9.70454545454545  5.35714285714286 10.5  C 5.35714285714286 11.2954545454545  5.09672619047619 11.9715909090909  4.57589285714286 12.5284090909091  C 4.05505952380952 13.0852272727273  3.42261904761905 13.3636363636364  2.67857142857143 13.3636363636364  C 1.93452380952381 13.3636363636364  1.30208333333333 13.0852272727273  0.78125 12.5284090909091  C 0.260416666666667 11.9715909090909  0 11.2954545454545  0 10.5  C 0 9.70454545454545  0.260416666666667 9.02840909090909  0.78125 8.47159090909091  C 1.30208333333333 7.91477272727273  1.93452380952381 7.63636363636364  2.67857142857143 7.63636363636364  C 3.42261904761905 7.63636363636364  4.05505952380952 7.91477272727273  4.57589285714286 8.47159090909091  Z M 24.8674665178571 16.3689630681818  C 24.9558221726191 16.4634232954545  25 16.5752840909091  25 16.7045454545455  L 25 19.5681818181818  C 25 19.6974431818182  24.9558221726191 19.8093039772727  24.8674665178571 19.9037642045455  C 24.7791108630952 19.9982244318182  24.6744791666667 20.0454545454545  24.5535714285714 20  L 7.58928571428571 20  C 7.46837797619048 20.0454545454545  7.36374627976191 19.9982244318182  7.275390625 19.9037642045455  C 7.1870349702381 19.8093039772727  7.14285714285714 19.6974431818182  7.14285714285714 19.5681818181818  L 7.14285714285714 16.7045454545455  C 7.14285714285714 16.5752840909091  7.1870349702381 16.4634232954545  7.275390625 16.3689630681818  C 7.36374627976191 16.2745028409091  7.46837797619048 16.2272727272727  7.58928571428571 16  L 24.5535714285714 16  C 24.6744791666667 16.2272727272727  24.7791108630952 16.2745028409091  24.8674665178571 16.3689630681818  Z M 4.57589285714286 0.835227272727273  C 5.09672619047619 1.39204545454545  5.35714285714286 2.06818181818182  5.35714285714286 2.86363636363636  C 5.35714285714286 3.65909090909091  5.09672619047619 4.33522727272727  4.57589285714286 4.89204545454545  C 4.05505952380952 5.44886363636363  3.42261904761905 5.72727272727273  2.67857142857143 5.72727272727273  C 1.93452380952381 5.72727272727273  1.30208333333333 5.44886363636363  0.78125 4.89204545454545  C 0.260416666666667 4.33522727272727  0 3.65909090909091  0 2.86363636363636  C 0 2.06818181818182  0.260416666666667 1.39204545454545  0.78125 0.835227272727273  C 1.30208333333333 0.278409090909089  1.93452380952381 0  2.67857142857143 0  C 3.42261904761905 0  4.05505952380952 0.278409090909089  4.57589285714286 0.835227272727273  Z M 24.8674665178571 8.73259943181818  C 24.9558221726191 8.82705965909091  25 8.93892045454546  25 9.06818181818182  L 25 11.9318181818182  C 25 12.0610795454545  24.9558221726191 12.1729403409091  24.8674665178571 12.2674005681818  C 24.7791108630952 12.3618607954545  24.6744791666667 12.4090909090909  24.5535714285714 12  L 7.58928571428571 12  C 7.46837797619048 12.4090909090909  7.36374627976191 12.3618607954545  7.275390625 12.2674005681818  C 7.1870349702381 12.1729403409091  7.14285714285714 12.0610795454545  7.14285714285714 11.9318181818182  L 7.14285714285714 9.06818181818182  C 7.14285714285714 8.93892045454546  7.1870349702381 8.82705965909091  7.275390625 8.73259943181818  C 7.36374627976191 8.63813920454546  7.46837797619048 8.59090909090909  7.58928571428571 9  L 24.5535714285714 9  C 24.6744791666667 8.59090909090909  24.7791108630952 8.63813920454546  24.8674665178571 8.73259943181818  Z M 24.8674665178571 1.09623579545455  C 24.9558221726191 1.19069602272727  25 1.30255681818182  25 1.43181818181818  L 25 4.29545454545455  C 25 4.42471590909091  24.9558221726191 4.53657670454545  24.8674665178571 4.63103693181818  C 24.7791108630952 4.72549715909091  24.6744791666667 4.77272727272727  24.5535714285714 5  L 7.58928571428571 5  C 7.46837797619048 4.77272727272727  7.36374627976191 4.72549715909091  7.275390625 4.63103693181818  C 7.1870349702381 4.53657670454545  7.14285714285714 4.42471590909091  7.14285714285714 4.29545454545455  L 7.14285714285714 1.43181818181818  C 7.14285714285714 1.30255681818182  7.1870349702381 1.19069602272727  7.275390625 1.09623579545455  C 7.36374627976191 1.00177556818182  7.46837797619048 0.954545454545454  7.58928571428571 1  L 24.5535714285714 1  C 24.6744791666667 0.954545454545454  24.7791108630952 1.00177556818182  24.8674665178571 1.09623579545455  Z " fill-rule="nonzero" fill="#7f7f7f" stroke="none" transform="matrix(1 0 0 1 24 2660 )" />
  </g>
</svg>