<?xml version="1.0" encoding="utf-8"?>
<svg version="1.1" xmlns:xlink="http://www.w3.org/1999/xlink" width="12px" height="11px" xmlns="http://www.w3.org/2000/svg">
  <g transform="matrix(1 0 0 1 -198 -349 )">
    <path d="M 11.8797595190381 5.05590062111801  C 11.9599198396794 5.13181504485852  12 5.21911663216011  12 5.31780538302277  C 12 5.41649413388544  11.9599198396794 5.50379572118702  11.8797595190381 5.57971014492754  L 6.27655310621242 10.8861283643892  C 6.19639278557114 10.9620427881297  6.10420841683367 11  6 11  C 5.89579158316633 11  5.80360721442886 10.9620427881297  5.72344689378757 10.8861283643892  L 0.120240480961924 5.57971014492754  C 0.0400801603206414 5.50379572118702  0 5.41649413388544  0 5.31780538302277  C 0 5.21911663216011  0.0400801603206414 5.13181504485852  0.120240480961924 5.05590062111801  L 0.721442885771543 4.48654244306418  C 0.801603206412826 4.41062801932367  0.893787575150301 4.37267080745342  0.997995991983968 4.37267080745342  C 1.10220440881764 4.37267080745342  1.19438877755511 4.41062801932367  1.27454909819639 4.48654244306418  L 6 8.96169772256729  L 10.7254509018036 4.48654244306418  C 10.8056112224449 4.41062801932367  10.8977955911824 4.37267080745342  11.002004008016 4.37267080745342  C 11.1062124248497 4.37267080745342  11.1983967935872 4.41062801932367  11.2785571142285 4.48654244306418  L 11.8797595190381 5.05590062111801  Z M 11.8797595190381 0.683229813664596  C 11.9599198396794 0.759144237405105  12 0.846445824706693  12 0.945134575569359  C 12 1.04382332643202  11.9599198396794 1.13112491373361  11.8797595190381 1.20703933747412  L 6.27655310621242 6.51345755693582  C 6.19639278557114 6.58937198067633  6.10420841683367 6.62732919254658  6 6.62732919254658  C 5.89579158316633 6.62732919254658  5.80360721442886 6.58937198067633  5.72344689378757 6.51345755693582  L 0.120240480961924 1.20703933747412  C 0.0400801603206414 1.13112491373361  0 1.04382332643202  0 0.945134575569359  C 0 0.846445824706693  0.0400801603206414 0.759144237405105  0.120240480961924 0.683229813664596  L 0.721442885771543 0.113871635610766  C 0.801603206412826 0.0379572118702545  0.893787575150301 0  0.997995991983968 0  C 1.10220440881764 0  1.19438877755511 0.0379572118702545  1.27454909819639 0.113871635610766  L 6 4.58902691511387  L 10.7254509018036 0.113871635610766  C 10.8056112224449 0.0379572118702545  10.8977955911824 0  11.002004008016 0  C 11.1062124248497 0  11.1983967935872 0.0379572118702545  11.2785571142285 0.113871635610766  L 11.8797595190381 0.683229813664596  Z " fill-rule="nonzero" fill="#014886" stroke="none" transform="matrix(1 0 0 1 198 349 )" />
  </g>
</svg>