<svg id="图层_1" data-name="图层 1" xmlns="http://www.w3.org/2000/svg" viewBox="0 0 62 62"><defs><style>.cls-1{fill:#fff;}</style></defs><title>1024 副本</title><path class="cls-1" d="M60,44.5v0h0a3.86,3.86,0,0,0-.06-.49c-.64,2.82-6.16,5.16-13.55,5.94a45.3,45.3,0,0,1-10.75,0c-7.4-.78-12.93-3.12-13.56-5.94a2.42,2.42,0,0,0-.06.54v1.85c0,3.74,8.5,6.76,19,6.76s19-3,19-6.76V44.5Z"/><path class="cls-1" d="M60,36.78v-.07c0-1.85-2.18-3.53-5.61-4.74A41.52,41.52,0,0,0,41,30c-10.49,0-19,3-19,6.75v1.86a3.85,3.85,0,0,0,1.89,2.94,12,12,0,0,0,1.87,1.09c3.46,1.65,9,2.72,15.23,2.72s11.78-1.07,15.24-2.72a11.86,11.86,0,0,0,1.86-1.09A3.85,3.85,0,0,0,60,38.62V36.78ZM41,42.49a34.32,34.32,0,0,1-11.86-1.86A34.32,34.32,0,0,1,41,38.77a34.32,34.32,0,0,1,11.86,1.86A34.28,34.28,0,0,1,41,42.49ZM54.64,39.8A41.11,41.11,0,0,0,41,37.74,41.15,41.15,0,0,0,27.36,39.8a7.86,7.86,0,0,1-1.51-1.1C28.08,36.49,34,34.9,41,34.9s12.92,1.59,15.15,3.8A7.56,7.56,0,0,1,54.64,39.8ZM57.07,37c-3.36-1.89-9.3-3.16-16.07-3.16S28.29,35.14,24.93,37a2.45,2.45,0,0,1,0-.27C24.91,33.6,32.11,31,41,31s16.09,2.56,16.09,5.72A1.23,1.23,0,0,1,57.07,37Z"/><path class="cls-1" d="M60,40.63v-.05a2.63,2.63,0,0,0-.06-.49A3.77,3.77,0,0,1,58.67,42a9.17,9.17,0,0,1-1.92,1.3A29.85,29.85,0,0,1,46.38,46a43.6,43.6,0,0,1-5.38.32A43.56,43.56,0,0,1,35.63,46a29.85,29.85,0,0,1-10.38-2.71A9.17,9.17,0,0,1,23.33,42a3.83,3.83,0,0,1-1.26-1.93,3.31,3.31,0,0,0-.06.54v1.86a2.53,2.53,0,0,0,.21,1h0a1,1,0,0,1,0,.1l.06.11.09.17a3.61,3.61,0,0,0,.34.49c.09.1.18.21.28.31l.21.21.23.2c.16.14.33.27.51.4h0c.13.1.27.19.42.29h0l.15.1.39.23.41.22h0l.35.17.38.17C29.6,48.24,35,49.24,41,49.24s11.4-1,14.88-2.56l.37-.17.18-.08.19-.1.32-.17.3-.17,0,0,.15-.09.16-.1h0l.42-.29h0c.14-.09.26-.19.39-.29l.43-.38.13-.13.11-.12.08-.1a3.12,3.12,0,0,0,.29-.37l.09-.13c0-.08.09-.16.13-.24l.06-.1.06-.14h0a2.72,2.72,0,0,0,.21-1V40.63Z"/><path class="cls-1" d="M19.92,48.67H11.29A6,6,0,0,1,9.15,37a.63.63,0,0,0,.37-.78,17.86,17.86,0,0,1-.66-2.54,19.12,19.12,0,0,1-.3-3.57,18.26,18.26,0,0,1,35.29-6.29,17,17,0,0,1,.88,3,.62.62,0,0,0,.59.49c1,0,1.9.11,2.82.23a30.87,30.87,0,0,1,6.39,1.53h0a.39.39,0,0,0,.24,0,.57.57,0,0,0,.34-1l0,0a15.86,15.86,0,0,0-7.7-4A21.51,21.51,0,0,0,5.32,29.81a21.27,21.27,0,0,0,.52,5.32,9.28,9.28,0,0,0,5.45,16.79H21.5a.51.51,0,0,0,.32-.91A6.94,6.94,0,0,1,19.92,48.67Z"/></svg>