<?xml version="1.0" encoding="utf-8"?>
<!-- Generator: Adobe Illustrator 22.1.0, SVG Export Plug-In . SVG Version: 6.00 Build 0)  -->
<svg version="1.1" id="图层_1" xmlns="http://www.w3.org/2000/svg" xmlns:xlink="http://www.w3.org/1999/xlink" x="0px" y="0px"
	 viewBox="0 0 34 34" style="enable-background:new 0 0 34 34;" xml:space="preserve">
<title>添加-➕</title>
<desc>Created with Sketch.</desc>
<g id="v1.0-故障报修-2">
	<g id="v1.0-01快速报障-01" transform="translate(-37.000000, -259.000000)">
		<g id="内容填写" transform="translate(0.000000, 120.000000)">
			<g id="_x2795_" transform="translate(15.000000, 117.000000)">
				<g id="照相机" transform="translate(22.000000, 22.000000)">
					<path id="Combined-Shape" d="M16,16V1c0-0.6,0.4-1,1-1s1,0.4,1,1v15h15c0.6,0,1,0.4,1,1s-0.4,1-1,1H18v15c0,0.6-0.4,1-1,1
						s-1-0.4-1-1V18H1c-0.6,0-1-0.4-1-1s0.4-1,1-1H16z"/>
				</g>
			</g>
		</g>
	</g>
</g>
</svg>
