<?xml version="1.0" encoding="utf-8"?>
<!-- Generator: Adobe Illustrator 22.1.0, SVG Export Plug-In . SVG Version: 6.00 Build 0)  -->
<svg version="1.1" id="图层_1" xmlns="http://www.w3.org/2000/svg" xmlns:xlink="http://www.w3.org/1999/xlink" x="0px" y="0px"
	 viewBox="0 0 20 20" style="enable-background:new 0 0 20 20;" xml:space="preserve">
<style type="text/css">
	.st0{fill-opacity:0;}
</style>
<title>扫一扫</title>
<desc>Created with Sketch.</desc>
<g id="v1.0-故障报修-2">
	<g id="v1.0-01快速报障-01" transform="translate(-300.000000, -32.000000)">
		<g id="icon-扫描" transform="translate(300.000000, 32.000000)">
			<rect id="dw" class="st0" width="20" height="20"/>
			<path id="Combined-Shape" d="M12.5,1H16c1.7,0,3,1.3,3,3v3.5h-1.5V4c0-0.8-0.7-1.5-1.5-1.5h-3.5V1z M7.5,1v1.5H4
				C3.2,2.5,2.5,3.2,2.5,4v3.5H1V4c0-1.7,1.3-3,3-3H7.5z M12.5,19v-1.5H16c0.8,0,1.5-0.7,1.5-1.5v-3.5H19V16c0,1.7-1.3,3-3,3H12.5z
				 M7.5,19H4c-1.7,0-3-1.3-3-3v-3.5h1.5V16c0,0.8,0.7,1.5,1.5,1.5h3.5V19z M1.8,9.2h16.5c0.4,0,0.8,0.3,0.8,0.8s-0.3,0.8-0.8,0.8
				H1.8C1.3,10.8,1,10.4,1,10S1.3,9.2,1.8,9.2z" fill="black"/>
		</g>
	</g>
</g>
</svg>
