<?xml version="1.0" encoding="utf-8"?>
<!-- Generator: Adobe Illustrator 22.1.0, SVG Export Plug-In . SVG Version: 6.00 Build 0)  -->
<svg version="1.1" id="图层_1" xmlns="http://www.w3.org/2000/svg" xmlns:xlink="http://www.w3.org/1999/xlink" x="0px" y="0px"
	 viewBox="0 0 30 30" style="enable-background:new 0 0 30 30;" xml:space="preserve">
<style type="text/css">
	.st0{fill:black;}
</style>
<title>搜索-输入框</title>
<desc>Created with Sketch.</desc>
<path class="st0" d="M29.5,28l-7.1-7.1c0,0,0,0,0,0c4-4.7,3.8-11.8-0.7-16.2c-4.7-4.7-12.3-4.7-17,0c-4.7,4.7-4.7,12.3,0,17
	C9.2,26,16.3,26.3,21,22.3c0,0,0,0,0,0l7.1,7.1c0.4,0.4,1,0.4,1.4,0C29.9,29,29.9,28.4,29.5,28z M20.3,20.2
	c-3.9,3.9-10.2,3.9-14.1,0C2.3,16.3,2.3,9.9,6.2,6c3.9-3.9,10.2-3.9,14.1,0C24.2,9.9,24.2,16.3,20.3,20.2z" fill="black"/>
</svg>
