<?xml version="1.0" encoding="utf-8"?>
<!-- Generator: Adobe Illustrator 22.1.0, SVG Export Plug-In . SVG Version: 6.00 Build 0)  -->
<svg version="1.1" id="图层_1" xmlns="http://www.w3.org/2000/svg" xmlns:xlink="http://www.w3.org/1999/xlink" x="0px" y="0px"
	 viewBox="0 0 36 36" style="enable-background:new 0 0 36 36;" xml:space="preserve">
<title>删除</title>
<desc>Created with Sketch.</desc>
<path d="M18,0C8.1,0,0,8.1,0,18s8.1,18,18,18s18-8.1,18-18S27.9,0,18,0z M25.8,24.4c0.4,0.4,0.4,1,0,1.4s-1,0.4-1.4,0L18,19.4
	l-6.4,6.4c-0.4,0.4-1,0.4-1.4,0s-0.4-1,0-1.4l6.4-6.4l-6.4-6.4c-0.4-0.4-0.4-1,0-1.4s1-0.4,1.4,0l6.4,6.4l6.4-6.4
	c0.4-0.4,1-0.4,1.4,0s0.4,1,0,1.4L19.4,18L25.8,24.4z"/>
</svg>
