<?xml version="1.0" encoding="utf-8"?>
<!-- Generator: Adobe Illustrator 22.1.0, SVG Export Plug-In . SVG Version: 6.00 Build 0)  -->
<svg version="1.1" id="图层_1" xmlns="http://www.w3.org/2000/svg" xmlns:xlink="http://www.w3.org/1999/xlink" x="0px" y="0px"
	 viewBox="0 0 48 48" style="enable-background:new 0 0 48 48;" xml:space="preserve">
<title>扫描</title>
<g>
	<path d="M4.5,16C5.3,16,6,15.3,6,14.5V9c0-1.7,1.3-3,3-3h5.5C15.3,6,16,5.3,16,4.5S15.3,3,14.5,3H9C5.7,3,3,5.7,3,9v5.5
		C3,15.3,3.7,16,4.5,16z"/>
	<path d="M33.5,6H39c1.7,0,3,1.3,3,3v5.5c0,0.8,0.7,1.5,1.5,1.5s1.5-0.7,1.5-1.5V9c0-3.3-2.7-6-6-6h-5.5C32.7,3,32,3.7,32,4.5
		S32.7,6,33.5,6z"/>
	<path d="M14.5,42H9c-1.7,0-3-1.3-3-3v-5.5C6,32.7,5.3,32,4.5,32S3,32.7,3,33.5V39c0,3.3,2.7,6,6,6h5.5c0.8,0,1.5-0.7,1.5-1.5
		S15.3,42,14.5,42z"/>
	<path d="M43.5,32c-0.8,0-1.5,0.7-1.5,1.5V39c0,1.7-1.3,3-3,3h-5.5c-0.8,0-1.5,0.7-1.5,1.5s0.7,1.5,1.5,1.5H39c3.3,0,6-2.7,6-6v-5.5
		C45,32.7,44.3,32,43.5,32z"/>
	<path d="M44.5,22.5h-41C2.7,22.5,2,23.2,2,24s0.7,1.5,1.5,1.5h41c0.8,0,1.5-0.7,1.5-1.5S45.3,22.5,44.5,22.5z"/>
</g>
</svg>
