<?xml version="1.0" encoding="utf-8"?>
<!-- Generator: Adobe Illustrator 22.1.0, SVG Export Plug-In . SVG Version: 6.00 Build 0)  -->
<svg version="1.1" id="图层_1" xmlns="http://www.w3.org/2000/svg" xmlns:xlink="http://www.w3.org/1999/xlink" x="0px" y="0px"
	 viewBox="0 0 50 50" style="enable-background:new 0 0 50 50;" xml:space="preserve">
<title>导航栏/搜素</title>
<desc>Created with Sketch.</desc>
<path d="M48.6,46.5L36.9,34.8c7-8.1,6.6-20.2-1-27.9c-8-8-21-8-29,0s-8,21,0,29c7.6,7.6,19.8,8,27.9,1l11.7,11.7
	c0.6,0.6,1.5,0.6,2.1,0C49.2,48.1,49.2,47.1,48.6,46.5z M33.8,33.8c-6.8,6.8-17.9,6.8-24.7,0C2.2,27,2.2,15.9,9,9
	c6.9-6.8,18-6.8,24.8,0S40.6,27,33.8,33.8z"/>
</svg>
