<svg id="图层_1" data-name="图层 1" xmlns="http://www.w3.org/2000/svg" xmlns:xlink="http://www.w3.org/1999/xlink" viewBox="0 0 40 40"><defs><style>.cls-1{fill:url(#_1);}.cls-2{fill:url(#_1-2);}</style><linearGradient id="_1" x1="12.15" y1="20.15" x2="28.15" y2="20.15" gradientUnits="userSpaceOnUse"><stop offset="0" stop-color="#fad24c"/><stop offset="1" stop-color="#eea405"/></linearGradient><linearGradient id="_1-2" x1="0" y1="20" x2="40" y2="20" xlink:href="#_1"/></defs><title>关于我们</title><path class="cls-1" d="M12.15,29.15h16v-18h-16Zm4.5-14h7a1.5,1.5,0,1,1,0,3h-7a1.5,1.5,0,1,1,0-3Zm0,7h7a1.5,1.5,0,0,1,0,3h-7a1.5,1.5,0,1,1,0-3Z"/><path class="cls-2" d="M20,0A20,20,0,1,0,40,20,20,20,0,0,0,20,0ZM31.15,29.29a2.86,2.86,0,0,1-2.86,2.86H12a2.86,2.86,0,0,1-2.86-2.86V11A2.86,2.86,0,0,1,12,8.15H28.29A2.86,2.86,0,0,1,31.15,11Z"/></svg>