<svg id="图层_1" data-name="图层 1" xmlns="http://www.w3.org/2000/svg" xmlns:xlink="http://www.w3.org/1999/xlink" viewBox="0 0 40 40"><defs><style>.cls-1{fill:url(#_2);}.cls-2{fill:url(#_2-2);}</style><linearGradient id="_2" y1="20" x2="40" y2="20" gradientUnits="userSpaceOnUse"><stop offset="0" stop-color="#34b7f9"/><stop offset="1" stop-color="#057ee8"/></linearGradient><linearGradient id="_2-2" x1="10.15" y1="21.54" x2="30.15" y2="21.54" xlink:href="#_2"/></defs><title>智能客服</title><path class="cls-1" d="M20,0A20,20,0,1,0,40,20,20,20,0,0,0,20,0ZM33.15,26.15a3,3,0,0,1-3,3H25.22l-4.36,4.31a1,1,0,0,1-1.41,0l-4.3-4.3h-5a3,3,0,0,1-3-3v-13a3,3,0,0,1,3-3h20a3,3,0,0,1,3,3Z"/><path class="cls-2" d="M10.15,26.15H16.4l3.77,3.78L24,26.15h6.16v-13h-20Zm15.5-8a1.5,1.5,0,1,1-1.5,1.5A1.5,1.5,0,0,1,25.65,18.15Zm-5.65,0a1.5,1.5,0,1,1-1.5,1.5A1.5,1.5,0,0,1,20,18.15Zm-5.35,0a1.5,1.5,0,1,1-1.5,1.5A1.5,1.5,0,0,1,14.65,18.15Z"/></svg>