<svg id="图层_1" data-name="图层 1" xmlns="http://www.w3.org/2000/svg" xmlns:xlink="http://www.w3.org/1999/xlink" viewBox="0 0 40 40"><defs><style>.cls-1{fill:url(#未命名的渐变_7);}.cls-2{fill:url(#未命名的渐变_7-2);}</style><linearGradient id="未命名的渐变_7" x1="10.27" y1="20.26" x2="29.73" y2="20.26" gradientUnits="userSpaceOnUse"><stop offset="0" stop-color="#fad24c"/><stop offset="1" stop-color="#eea405"/></linearGradient><linearGradient id="未命名的渐变_7-2" x1="0" y1="20" x2="40" y2="20" xlink:href="#未命名的渐变_7"/></defs><title>收藏</title><path class="cls-1" d="M21.67,15.19,20,10.84l-1.67,4.35a4,4,0,0,1-3.48,2.57L10.27,18l3.54,3a4.1,4.1,0,0,1,1.33,4.17L14,29.69l3.86-2.52a3.93,3.93,0,0,1,4.3,0L26,29.69l-1.15-4.52A4.1,4.1,0,0,1,26.19,21l3.54-3-4.58-.28A4,4,0,0,1,21.67,15.19Z"/><path class="cls-2" d="M20,0A20,20,0,1,0,40,20,20,20,0,0,0,20,0ZM33.6,18.75l-5.52,4.61a1,1,0,0,0-.33,1l1.8,7A2,2,0,0,1,27.62,34a2,2,0,0,1-1.07-.32l-6-3.92a1,1,0,0,0-1.08,0l-6,3.92a2,2,0,0,1-1.07.32,2,2,0,0,1-1.93-2.55l1.8-7a1,1,0,0,0-.33-1L6.4,18.75a2,2,0,0,1,1.15-3.6l7.12-.43a1,1,0,0,0,.87-.64l2.6-6.77a2,2,0,0,1,3.72,0l2.6,6.77a1,1,0,0,0,.87.64l7.12.43A2,2,0,0,1,33.6,18.75Z"/></svg>