<svg id="图层_1" data-name="图层 1" xmlns="http://www.w3.org/2000/svg" xmlns:xlink="http://www.w3.org/1999/xlink" viewBox="0 0 40 40"><defs><style>.cls-1{fill:url(#_4);}.cls-2{fill:url(#_4-2);}</style><linearGradient id="_4" x1="9.01" y1="21.79" x2="31.07" y2="21.79" gradientUnits="userSpaceOnUse"><stop offset="0" stop-color="#ff6f94"/><stop offset="1" stop-color="#f02b47"/></linearGradient><linearGradient id="_4-2" x1="0" y1="20" x2="40" y2="20" xlink:href="#_4"/></defs><title>关注</title><path class="cls-1" d="M27.18,13.5A4.47,4.47,0,0,0,24,14.81l-3.33,3.33a1,1,0,0,1-1.42,0l-3.41-3.42a4.24,4.24,0,0,0-2.52-1.27A4,4,0,0,0,9.91,14.8a4.25,4.25,0,0,0,.33,5.6L20,30.16l9.78-9.79a4.22,4.22,0,0,0,1.27-2.49,4,4,0,0,0-1.24-3.37A3.76,3.76,0,0,0,27.18,13.5Z"/><path class="cls-2" d="M20,0A20,20,0,1,0,40,20,20,20,0,0,0,20,0ZM32,22.38,29.9,24.5,21.41,33a2,2,0,0,1-2.82,0L8,22.38a7,7,0,0,1,9.9-9.9L20,14.6l1.91-1.91a7.2,7.2,0,0,1,10-.36A7,7,0,0,1,32,22.38Z"/></svg>