<svg id="图层_1" data-name="图层 1" xmlns="http://www.w3.org/2000/svg" xmlns:xlink="http://www.w3.org/1999/xlink" viewBox="0 0 40 40"><defs><style>.cls-1{fill:url(#_3);}</style><linearGradient id="_3" y1="20" x2="40" y2="20" gradientUnits="userSpaceOnUse"><stop offset="0" stop-color="#49ea95"/><stop offset="1" stop-color="#12b94a"/></linearGradient></defs><title>历史</title><path class="cls-1" d="M20,0A20,20,0,1,0,40,20,20,20,0,0,0,20,0Zm2.15,21.65a1.5,1.5,0,0,1-1.5,1.5h-5a1.5,1.5,0,1,1,0-3h3.5v-6.5a1.5,1.5,0,1,1,3,0Zm9.5,10.5h-6a1.5,1.5,0,0,1,0-3h6a1.5,1.5,0,0,1,0,3Zm0-5h-6a1.5,1.5,0,0,1,0-3h6a1.5,1.5,0,0,1,0,3Zm1.82-6.32A1.44,1.44,0,0,1,32,22.15h-.11a1.46,1.46,0,0,1-1.43-1.56A10.46,10.46,0,0,0,20.77,9.53a10.5,10.5,0,0,0-2.68,20.8,10.63,10.63,0,0,0,2.5.15,1.46,1.46,0,0,1,1.56,1.43V32a1.44,1.44,0,0,1-1.31,1.45q-.42,0-.84,0A13.5,13.5,0,1,1,33.5,20C33.5,20.28,33.49,20.56,33.47,20.83Z"/></svg>