<svg id="图层_1" data-name="图层 1" xmlns="http://www.w3.org/2000/svg" xmlns:xlink="http://www.w3.org/1999/xlink" viewBox="0 0 40 40"><defs><style>.cls-1{fill:url(#_1);}.cls-2{fill:url(#_1-2);}.cls-3{fill:url(#_1-3);}.cls-4{fill:url(#_1-4);}</style><linearGradient id="_1" x1="11" y1="22.23" x2="29" y2="22.23" gradientUnits="userSpaceOnUse"><stop offset="0" stop-color="#fad24c"/><stop offset="1" stop-color="#eea405"/></linearGradient><linearGradient id="_1-2" x1="11" y1="27.23" x2="29" y2="27.23" xlink:href="#_1"/><linearGradient id="_1-3" x1="0" y1="20" x2="40" y2="20" xlink:href="#_1"/><linearGradient id="_1-4" x1="11" y1="15" x2="29" y2="15" xlink:href="#_1"/></defs><title>积分管理</title><path class="cls-1" d="M29,20a15.73,15.73,0,0,1-9,2.55A15.73,15.73,0,0,1,11,20h0A.09.09,0,0,0,11,20c0,2.12,3.85,4.5,9,4.5s9-2.38,9-4.5A.09.09,0,0,0,29,20Z"/><path class="cls-2" d="M29,25a15.73,15.73,0,0,1-9,2.55A15.73,15.73,0,0,1,11,25h0A.09.09,0,0,0,11,25c0,2.12,3.85,4.5,9,4.5s9-2.38,9-4.5A.09.09,0,0,0,29,25Z"/><path class="cls-3" d="M20,0A20,20,0,1,0,40,20,20,20,0,0,0,20,0ZM32,20a5,5,0,0,1-.7,2.5A5,5,0,0,1,32,25c0,4.14-5.37,7.5-12,7.5S8,29.14,8,25a5,5,0,0,1,.7-2.5,4.81,4.81,0,0,1,0-5A5,5,0,0,1,8,15c0-4.14,5.37-7.5,12-7.5S32,10.86,32,15a5,5,0,0,1-.7,2.5A5,5,0,0,1,32,20Z"/><ellipse class="cls-4" cx="20" cy="15" rx="9" ry="4.5"/></svg>