<svg id="图层_1" data-name="图层 1" xmlns="http://www.w3.org/2000/svg" xmlns:xlink="http://www.w3.org/1999/xlink" viewBox="0 0 40 40"><defs><style>.cls-1{fill:url(#_3);}.cls-2{fill:url(#_3-2);}.cls-3{fill:url(#_3-3);}</style><linearGradient id="_3" x1="17" y1="11.5" x2="23" y2="11.5" gradientUnits="userSpaceOnUse"><stop offset="0" stop-color="#49ea95"/><stop offset="1" stop-color="#12b94a"/></linearGradient><linearGradient id="_3-2" x1="10" y1="23" x2="30" y2="23" xlink:href="#_3"/><linearGradient id="_3-3" x1="0" y1="20" x2="40" y2="20" xlink:href="#_3"/></defs><title>安全设置</title><path class="cls-1" d="M23,11.5a3,3,0,0,0-6,0v3h6Z"/><path class="cls-2" d="M14,17.5H10v11H30v-11H14Zm6,7.15a1.5,1.5,0,1,1,1.5-1.5A1.5,1.5,0,0,1,20,24.65Z"/><path class="cls-3" d="M20,0A20,20,0,1,0,40,20,20,20,0,0,0,20,0ZM33,28.5a3,3,0,0,1-3,3H10a3,3,0,0,1-3-3v-11a3,3,0,0,1,3-3h4v-3a6,6,0,0,1,12,0v3h4a3,3,0,0,1,3,3Z"/></svg>