<svg id="图层_1" data-name="图层 1" xmlns="http://www.w3.org/2000/svg" xmlns:xlink="http://www.w3.org/1999/xlink" viewBox="0 0 40 40"><defs><style>.cls-1{fill:url(#_2);}.cls-2{fill:url(#_2-2);}.cls-3{fill:url(#_2-3);}</style><linearGradient id="_2" x1="10.05" y1="20" x2="29.95" y2="20" gradientUnits="userSpaceOnUse"><stop offset="0" stop-color="#34b7f9"/><stop offset="1" stop-color="#057ee8"/></linearGradient><linearGradient id="_2-2" x1="19" y1="20" x2="21" y2="20" xlink:href="#_2"/><linearGradient id="_2-3" x1="0" y1="20" x2="40" y2="20" xlink:href="#_2"/></defs><title>系统设置</title><path class="cls-1" d="M28.26,18,30,15.34l-1-1.68-3.25.13a2.08,2.08,0,0,1-1-.27l-1.53-.9a1.94,1.94,0,0,1-.78-.8L21,9H19l-1.47,2.82a2,2,0,0,1-.77.8l-1.54.9a2.12,2.12,0,0,1-1.07.27L11,13.65l-1,1.7L11.74,18a2,2,0,0,1,.31,1.07v1.78A2,2,0,0,1,11.74,22l-1.69,2.7,1,1.68,3.25-.13a2.08,2.08,0,0,1,1,.27l1.54.9a2,2,0,0,1,.76.8L19,31H21l1.48-2.82a2,2,0,0,1,.76-.8l1.54-.9a2.12,2.12,0,0,1,1.07-.27l3.17.14,1-1.7L28.26,22A2,2,0,0,1,28,20.89V19.11A2,2,0,0,1,28.26,18ZM20,24a4,4,0,1,1,4-4A4,4,0,0,1,20,24Z"/><circle class="cls-2" cx="20" cy="20" r="1"/><path class="cls-3" d="M20,0A20,20,0,1,0,40,20,20,20,0,0,0,20,0ZM32.49,23.06a3,3,0,0,1,.06,3.09l-1,1.69A3,3,0,0,1,29,29.34l-3-.12-1,.61-1.34,2.56A3,3,0,0,1,21,34H19a3,3,0,0,1-2.65-1.61L15,29.83l-1-.61-3,.12a3,3,0,0,1-2.6-1.5l-1-1.69a3,3,0,0,1,.07-3.09l1.54-2.45V19.39L7.51,17a3,3,0,0,1-.07-3.1l1-1.69a3,3,0,0,1,2.6-1.5l3,.12,1-.61,1.34-2.56A3,3,0,0,1,19,6H21a3,3,0,0,1,2.65,1.61L25,10.17l1,.61,2.91-.12H29a3,3,0,0,1,2.6,1.5l1,1.69a3,3,0,0,1-.06,3.09L31,19.39v1.22Z"/></svg>